<?xml version="1.0" encoding="UTF-8" standalone="no"?>
<svg
   xmlns:dc="http://purl.org/dc/elements/1.1/"
   xmlns:cc="http://creativecommons.org/ns#"
   xmlns:rdf="http://www.w3.org/1999/02/22-rdf-syntax-ns#"
   xmlns:svg="http://www.w3.org/2000/svg"
   xmlns="http://www.w3.org/2000/svg"
   xmlns:sodipodi="http://sodipodi.sourceforge.net/DTD/sodipodi-0.dtd"
   xmlns:inkscape="http://www.inkscape.org/namespaces/inkscape"
   width="79"
   height="76"
   viewBox="0 0 79 76"
   version="1.1"
   id="svg5686"
   sodipodi:docname="icon-2.svg"
   inkscape:version="0.92.4 (5da689c313, 2019-01-14)">
  <metadata
     id="metadata5690">
    <rdf:RDF>
      <cc:Work
         rdf:about="">
        <dc:format>image/svg+xml</dc:format>
        <dc:type
           rdf:resource="http://purl.org/dc/dcmitype/StillImage" />
      </cc:Work>
    </rdf:RDF>
  </metadata>
  <sodipodi:namedview
     pagecolor="#ffffff"
     bordercolor="#666666"
     borderopacity="1"
     objecttolerance="10"
     gridtolerance="10"
     guidetolerance="10"
     inkscape:pageopacity="0"
     inkscape:pageshadow="2"
     inkscape:window-width="1920"
     inkscape:window-height="1017"
     id="namedview5688"
     showgrid="false"
     inkscape:zoom="6.2105263"
     inkscape:cx="52.857832"
     inkscape:cy="48.81748"
     inkscape:window-x="-8"
     inkscape:window-y="-8"
     inkscape:window-maximized="1"
     inkscape:current-layer="svg5686" />
  <defs
     id="defs5682">
    <style
       id="style5680">
      .cls-1 {
        fill: #3c3c3c;
        fill-rule: evenodd;
      }
    </style>
  </defs>
  <path
     id="path4522"
     d="M 76.920977,75.995015 H 2.077978 c -1.148977,0 -2.079988,-0.94001 -2.079988,-2.09802 V 12.980009 2.091002 c 0,-1.158993 0.931011,-2.098999 2.079988,-2.098999 h 74.842999 c 1.148031,0 2.079004,0.938986 2.079004,2.098999 v 10.889007 60.916986 c 0,1.159 -0.930973,2.09802 -2.079004,2.09802 z M 74.84201,4.19 H 4.156 v 6.691011 h 70.68601 z m 0,10.887987 H 4.156 V 71.798001 H 74.84201 Z M 27.748,34.622983 c 0.711004,-0.716976 1.861984,-0.716976 2.572989,0 0.711004,0.717014 0.711004,1.87903 0,2.596006 l -4.363994,4.407005 4.37401,4.415017 c 0.709984,0.716977 0.709984,1.878993 0,2.596007 -0.354898,0.357921 -0.821027,0.537978 -1.286023,0.537978 -0.465978,0 -0.92999,-0.179906 -1.285984,-0.538999 l -5.659994,-5.712 c -0.711004,-0.717014 -0.711004,-1.880012 0,-2.596989 z M 39.752006,32.845018 C 39.999943,31.862 40.996,31.270995 41.964013,31.519991 c 0.973984,0.249827 1.561965,1.251023 1.31399,2.234003 l -4.624025,18.281008 c -0.210142,0.829002 -0.949984,1.381002 -1.760995,1.381002 -0.148914,0 -0.300851,-0.0189 -0.451994,-0.05707 -0.973984,-0.249827 -1.56,-1.250003 -1.311988,-2.233021 z M 48.665984,34.622 c 0.710022,-0.717014 1.863005,-0.717014 2.572007,0 l 5.659993,5.712983 c 0.342048,0.343937 0.53401,0.811011 0.53401,1.298003 0,0.48703 -0.192,0.953008 -0.53401,1.298003 l -5.650998,5.704026 c -0.354898,0.359811 -0.820006,0.539981 -1.285002,0.539981 -0.464995,0 -0.931993,-0.179906 -1.285984,-0.538999 -0.711005,-0.717014 -0.711005,-1.878992 0,-2.596006 l 4.364976,-4.405984 -4.374992,-4.415018 C 47.956,36.500992 47.956,35.339997 48.665984,34.622 Z M 9.1809955,6.066989 c 0.802999,0 1.4539835,0.658016 1.4539835,1.468006 0,0.811011 -0.6509845,1.468007 -1.4539835,1.468007 -0.804019,0 -1.455005,-0.656996 -1.455005,-1.468007 0,-0.80999 0.650986,-1.468006 1.455005,-1.468006 z m 4.3500085,10e-4 c 0.802999,0 1.453985,0.656995 1.453985,1.466986 0,0.811011 -0.650986,1.467023 -1.453985,1.467023 -0.802015,0 -1.453001,-0.656012 -1.453001,-1.467023 0,-0.809991 0.650986,-1.466986 1.453001,-1.466986 z m 4.349972,-10e-4 c 0.803036,0 1.454022,0.658016 1.454022,1.468006 0,0.811011 -0.650986,1.468007 -1.454022,1.468007 -0.802998,0 -1.453984,-0.656996 -1.453984,-1.468007 0,-0.80999 0.650986,-1.468006 1.453984,-1.468006 z"
     class="cls-1"
     inkscape:connector-curvature="0"
     style="fill:#3c3c3c;fill-rule:evenodd;stroke-width:0.99999994" />
</svg>
